<?xml version="1.0" standalone="no"?>
<!DOCTYPE svg PUBLIC "-//W3C//DTD SVG 20010904//EN"
 "http://www.w3.org/TR/2001/REC-SVG-20010904/DTD/svg10.dtd">
<svg version="1.0" xmlns="http://www.w3.org/2000/svg"
 width="720.000000pt" height="720.000000pt" viewBox="0 0 720.000000 720.000000"
 preserveAspectRatio="xMidYMid meet">
<metadata>
Created by potrace 1.14, written by Peter Selinger 2001-2017
</metadata>
<g transform="translate(0.000000,720.000000) scale(0.100000,-0.100000)"
fill="#000000" stroke="none">
<path d="M2459 7196 c-2 -2 -35 -6 -74 -10 -79 -7 -116 -12 -227 -32 -152 -26
-384 -97 -518 -157 -25 -11 -48 -21 -51 -21 -14 -2 -224 -111 -227 -118 -2 -5
-8 -8 -12 -8 -12 0 -156 -94 -241 -156 -93 -69 -180 -145 -284 -249 -120 -121
-145 -150 -237 -274 -43 -58 -81 -110 -86 -116 -4 -5 -19 -30 -32 -55 -14 -25
-28 -47 -31 -50 -13 -11 -119 -221 -155 -305 -38 -92 -103 -274 -110 -310 -2
-11 -11 -49 -20 -84 -33 -133 -41 -181 -61 -351 -11 -87 -10 -2344 0 -2440 10
-95 15 -133 22 -168 3 -15 8 -43 11 -62 3 -19 8 -42 11 -50 3 -8 7 -24 8 -35
7 -50 67 -255 94 -320 5 -11 23 -56 41 -100 29 -70 86 -185 160 -321 13 -23
33 -54 46 -70 13 -15 24 -33 24 -41 0 -7 5 -13 10 -13 6 0 10 -7 10 -15 0 -8
5 -15 10 -15 6 0 10 -6 10 -14 0 -8 4 -16 9 -18 5 -2 31 -33 59 -71 124 -163
346 -380 501 -487 27 -19 50 -38 51 -42 0 -5 4 -8 9 -8 5 0 38 -19 73 -42 35
-24 81 -53 103 -65 58 -33 294 -147 335 -162 19 -7 44 -17 55 -22 86 -37 309
-97 419 -113 21 -4 42 -8 46 -11 4 -3 32 -7 61 -10 30 -3 70 -7 89 -10 33 -5
205 -16 281 -18 19 0 40 2 45 6 5 3 16 2 23 -3 8 -4 27 -4 42 0 16 5 29 6 29
2 0 -4 19 -6 42 -4 24 1 48 3 53 3 102 -2 212 -2 220 -1 6 1 15 1 20 0 6 -1
39 -1 75 -1 61 1 79 1 115 1 8 -1 31 -1 50 -1 19 0 42 0 50 1 8 0 22 0 30 0 8
0 22 0 30 0 8 -1 31 -1 50 -1 19 0 42 0 50 1 8 0 22 0 30 0 8 0 22 0 30 0 8
-1 31 -1 50 -1 19 0 42 0 50 1 23 0 44 0 58 -1 6 0 35 1 62 1 28 1 53 1 58 0
18 -4 78 -3 83 2 3 4 18 3 32 -1 15 -5 36 -5 47 -1 11 4 24 5 30 2 8 -5 77 -6
100 -2 6 1 12 2 15 0 15 -5 80 -4 80 2 0 4 12 3 28 -1 15 -5 36 -5 47 -1 11 4
24 5 29 2 5 -3 24 -5 41 -5 17 0 36 2 41 5 5 3 18 2 29 -2 11 -4 29 -4 41 0
11 5 27 5 34 0 7 -5 23 -5 34 -2 27 9 58 8 74 -1 6 -5 12 -4 12 0 0 5 15 9 33
9 82 3 270 28 362 49 143 32 329 88 410 125 22 9 51 21 64 25 100 31 447 235
564 332 23 19 62 51 87 71 111 90 346 344 408 441 9 14 19 28 23 31 11 9 85
124 110 170 13 25 27 47 30 50 8 8 88 168 116 235 39 91 46 110 48 115 1 3 5
14 9 25 29 74 35 95 31 95 -3 0 1 14 10 30 9 17 13 30 9 30 -4 0 -1 7 6 15 7
8 10 15 6 15 -3 0 -1 12 5 28 6 15 12 38 14 52 2 14 11 52 19 85 8 33 17 80
20 105 3 25 8 56 10 69 18 84 21 288 21 1321 0 1043 -3 1215 -20 1315 -2 17
-7 44 -9 60 -9 62 -35 184 -50 240 -23 83 -30 108 -48 155 -11 30 -21 63 -23
72 -5 26 -80 198 -122 281 -76 151 -241 398 -327 490 -14 15 -26 30 -26 33 0
8 -202 207 -259 254 -30 25 -61 52 -70 60 -9 8 -32 26 -51 39 -19 14 -42 31
-50 39 -23 21 -151 102 -161 102 -5 0 -9 3 -9 8 0 4 -10 12 -23 18 -42 20
-142 76 -154 86 -7 6 -13 7 -13 3 0 -4 -11 0 -25 9 -94 62 -463 183 -636 210
-20 3 -42 7 -50 10 -8 3 -39 8 -69 11 -30 4 -66 9 -80 12 -27 6 -2375 15
-2381 9z"/>
</g>
</svg>
